<svg width="111" height="75" viewBox="0 0 111 75" fill="none" xmlns="http://www.w3.org/2000/svg">
<g clip-path="url(#clip0_119_59)">
<path d="M26.6438 68.3263H22.3678C22.2174 61.134 21.8005 54.3709 21.1192 48.0357H21.0816L14.5711 68.3263H11.3153L4.84427 48.0357H4.80615C4.326 54.1199 4.02392 60.883 3.89795 68.3263H-0.000854492C0.251094 59.274 0.881624 50.7883 1.89074 42.8671H7.19063L13.3597 61.5737H13.3976L19.6046 42.8671H24.6756C25.7861 52.1442 26.4418 60.6325 26.6432 68.3263" fill="#00758F"/>
<path d="M45.1923 49.5428C43.451 58.9579 41.1542 65.7999 38.3033 70.068C36.082 73.3569 33.6486 75.0012 30.9988 75.0012C30.2924 75.0012 29.4213 74.7892 28.3877 74.3679V72.0983C28.8926 72.172 29.4852 72.2113 30.1666 72.2113C31.4028 72.2113 32.3991 71.8708 33.157 71.1913C34.0647 70.3633 34.5189 69.4326 34.5189 68.4013C34.5189 67.6968 34.1646 66.2513 33.4592 64.0647L28.7664 49.5428H32.9672L36.3353 60.4039C37.0919 62.8698 37.4075 64.5913 37.2813 65.5725C39.1234 60.6693 40.4103 55.326 41.1425 49.5428H45.1922" fill="#00758F"/>
<path d="M63.9236 61.2694C63.9236 63.4285 63.1275 65.2011 61.5406 66.5879C59.9524 67.9687 57.8188 68.6609 55.1469 68.6609C52.6479 68.6609 50.226 67.8642 47.88 66.2838L48.9775 64.0968C50.9964 65.1025 52.8233 65.6047 54.4636 65.6047C56.0024 65.6047 57.2067 65.2634 58.078 64.5892C58.9473 63.9102 59.4683 62.9631 59.4683 61.7618C59.4683 60.2501 58.4104 58.958 56.4693 57.874C54.6773 56.894 51.096 54.8481 51.096 54.8481C49.1556 53.4376 48.1827 51.9241 48.1827 49.4305C48.1827 47.3681 48.9082 45.7011 50.3573 44.4328C51.8096 43.162 53.6834 42.5265 55.978 42.5265C58.3497 42.5265 60.5064 43.1573 62.4488 44.4143L61.4621 46.5992C59.8001 45.897 58.1611 45.5445 56.5452 45.5445C55.234 45.5445 54.2236 45.8582 53.5192 46.4893C52.8108 47.1149 52.3729 47.92 52.3729 48.9013C52.3729 50.4091 53.4539 51.717 55.4497 52.8219C57.2641 53.8024 60.9332 55.8879 60.9332 55.8879C62.929 57.2959 63.9236 58.797 63.9236 61.2694Z" fill="#F29111"/>
<path fill-rule="evenodd" clip-rule="evenodd" d="M71.5677 63.2333C70.5329 61.5738 70.0145 58.9107 70.0145 55.2386C70.0145 48.8278 71.9707 45.6204 75.8812 45.6204C77.9258 45.6204 79.4263 46.3875 80.3859 47.9203C81.4195 49.5806 81.9379 52.2206 81.9379 55.8414C81.9379 62.3035 79.9816 65.5358 76.0712 65.5358C74.0272 65.5358 72.5261 64.7695 71.5677 63.2336M86.7823 68.9404L82.0863 66.6328C82.5044 66.2911 82.9015 65.9225 83.2609 65.4957C85.2547 63.1599 86.2526 59.7027 86.2526 55.1257C86.2526 46.703 82.9344 42.4894 76.2987 42.4894C73.0438 42.4894 70.5072 43.5574 68.6908 45.6966C66.6963 48.0352 65.7004 51.4794 65.7004 56.0305C65.7004 60.5056 66.5829 63.7887 68.3491 65.8741C69.9584 67.7591 72.3922 68.7029 75.6504 68.7029C76.8659 68.7029 77.9812 68.5538 78.995 68.2554L85.1103 71.8018L86.7777 68.9402" fill="#F29111"/>
<path d="M102.112 68.3263H89.9633V42.8671H94.0512V65.1945H102.112V68.3262" fill="#F29111"/>
<path d="M105.027 68.3237H105.704V65.7334H106.591V65.2044H104.106V65.7334H105.027V68.3237ZM110.181 68.3237H110.82V65.2044H109.859L109.078 67.3306L108.227 65.2044H107.302V68.3237H107.906V65.9497H107.94L108.831 68.3237H109.291L110.181 65.9497V68.3237Z" fill="#F29111"/>
<path fill-rule="evenodd" clip-rule="evenodd" d="M107.243 34.3394C104.772 34.2778 102.859 34.5235 101.254 35.2008C100.791 35.3851 100.051 35.3851 99.9878 35.9697C100.236 36.2153 100.266 36.6149 100.484 36.9548C100.853 37.5699 101.5 38.3992 102.088 38.831C102.736 39.3234 103.385 39.8138 104.065 40.2443C105.268 40.9858 106.626 41.4146 107.798 42.1532C108.479 42.5832 109.156 43.1365 109.837 43.5991C110.175 43.8451 110.39 44.2456 110.824 44.3978V44.3047C110.606 44.0287 110.545 43.6286 110.33 43.3193C110.022 43.0141 109.713 42.7354 109.404 42.4292C108.508 41.2297 107.395 40.1848 106.194 39.3234C105.206 38.6449 103.044 37.7219 102.644 36.5872C102.644 36.5872 102.612 36.5546 102.581 36.5243C103.261 36.4618 104.065 36.2154 104.712 36.0288C105.76 35.7527 106.717 35.8152 107.798 35.5391C108.292 35.4152 108.786 35.2603 109.282 35.1091V34.8303C108.724 34.2778 108.324 33.5384 107.738 33.0159C106.165 31.6629 104.434 30.3412 102.644 29.2321C101.686 28.6167 100.451 28.2187 99.4318 27.6945C99.0631 27.5096 98.4465 27.4185 98.2295 27.1092C97.6735 26.4327 97.3635 25.5418 96.9631 24.7407C96.0688 23.0507 95.2028 21.1749 94.4324 19.3879C93.8771 18.1891 93.5374 16.9902 92.8581 15.8821C89.6771 10.6517 86.221 7.48512 80.9116 4.37765C79.7693 3.73092 78.4113 3.45422 76.9616 3.11573C76.1886 3.08353 75.4176 3.02372 74.6459 2.99349C74.1512 2.77725 73.6566 2.1923 73.2252 1.9156C71.4649 0.808792 66.9292 -1.59016 65.6318 1.57777C64.7981 3.57844 66.8665 5.54624 67.5768 6.56169C68.1012 7.26823 68.7812 8.06942 69.1499 8.86797C69.3662 9.39114 69.4282 9.94586 69.6452 10.4986C70.1385 11.8519 70.6009 13.3596 71.2505 14.6215C71.5889 15.2676 71.9589 15.9452 72.3909 16.5269C72.6402 16.8673 73.0709 17.0192 73.1639 17.5745C72.7332 18.1891 72.6996 19.1118 72.4529 19.8815C71.3422 23.3577 71.7736 27.664 73.3486 30.2167C73.8412 30.9856 75.0159 32.678 76.5903 32.0305C77.9793 31.4778 77.6706 29.7243 78.0716 28.1872C78.1639 27.8154 78.1019 27.5716 78.2866 27.3258V27.388C78.7186 28.248 79.152 29.0765 79.553 29.9407C80.5113 31.4465 82.1767 33.0157 83.567 34.0606C84.3057 34.6164 84.8927 35.5684 85.8187 35.9078V35.8149H85.758C85.572 35.5389 85.295 35.4149 85.0477 35.2005C84.4923 34.6464 83.8763 33.9694 83.4423 33.3546C82.1463 31.6326 81.0027 29.7243 79.9863 27.7558C79.491 26.8 79.0596 25.7551 78.6579 24.8021C78.4733 24.4347 78.4733 23.8794 78.1639 23.6953C77.6996 24.3713 77.0223 24.9566 76.6832 25.7846C76.0962 27.1089 76.0349 28.7389 75.8173 30.4316C75.6946 30.4637 75.7566 30.4316 75.6946 30.4927C74.7079 30.2468 74.3682 29.2318 73.9969 28.3733C73.0709 26.1864 72.9152 22.6798 73.7192 20.1571C73.9342 19.5123 74.8629 17.4821 74.4909 16.8669C74.3043 16.28 73.6876 15.9448 73.3486 15.4814C72.9482 14.8971 72.5136 14.1603 72.2385 13.513C71.4972 11.791 71.1246 9.88297 70.3245 8.16098C69.9539 7.35979 69.3042 6.52903 68.7812 5.79226C68.1935 4.96149 67.5458 4.3772 67.0822 3.39396C66.9291 3.05482 66.7128 2.50076 66.9588 2.13269C67.0195 1.88623 67.1448 1.79355 67.3922 1.73177C67.7912 1.39329 68.9348 1.82313 69.3352 2.00782C70.4782 2.46789 71.4352 2.90101 72.3909 3.54577C72.8236 3.85402 73.2866 4.43832 73.8412 4.59343H74.4909C75.4782 4.80703 76.5902 4.65324 77.5169 4.93126C79.1519 5.45377 80.6333 6.22274 81.9616 7.0535C86.004 9.60691 89.338 13.2376 91.5904 17.5741C91.9617 18.2806 92.1174 18.9274 92.4564 19.6641C93.1047 21.1745 93.9081 22.7124 94.5551 24.1875C95.2028 25.6335 95.8214 27.1087 96.7488 28.3102C97.2104 28.9551 99.0631 29.2935 99.8968 29.6322C100.513 29.9081 101.471 30.1546 102.027 30.4925C103.076 31.1374 104.124 31.8768 105.113 32.5854C105.606 32.9546 107.15 33.7227 107.243 34.3389" fill="#00758F"/>
<path fill-rule="evenodd" clip-rule="evenodd" d="M75.7559 7.60444C75.2322 7.60444 74.8629 7.66753 74.4902 7.7589V7.82067H74.5503C74.7996 8.31163 75.2322 8.65275 75.5383 9.08259C75.7869 9.57488 76.0032 10.0652 76.2499 10.5581C76.2802 10.5279 76.3099 10.4957 76.3099 10.4957C76.7452 10.1894 76.9609 9.69776 76.9609 8.95836C76.7742 8.74146 76.7452 8.52785 76.5896 8.31162C76.4049 8.00469 76.0032 7.85089 75.7559 7.60442" fill="#00758F"/>
</g>
<defs>
<clipPath id="clip0_119_59">
<rect width="110.821" height="75" fill="white"/>
</clipPath>
</defs>
</svg>
