<svg width="125" height="75" viewBox="0 0 125 75" fill="none" xmlns="http://www.w3.org/2000/svg">
<g clip-path="url(#clip0_119_51)">
<path d="M29.4968 19.5626H53.0722V21.4284H31.6581V35.4561H51.7977V37.3219H31.6581V52.7105H53.2951V54.5764H29.4968V19.5626ZM55.1801 19.5626H57.6854L68.7874 34.9511L80.1317 19.5626L95.5707 -0.00976562L70.2169 36.5669L83.3009 54.5667H80.6744L68.8019 38.1972L56.8665 54.5764H54.3127L67.4742 36.5765L55.185 19.5626H55.1801ZM84.207 21.4284V19.5626H111.073V21.4284H98.7011V54.5812H96.5399V21.4236H84.2119L84.207 21.4284ZM-0.00984192 19.5626H2.69416L39.9543 75.0095L24.5589 54.5764L2.26774 22.2075L2.17081 54.5764H-0.00984192V19.5626ZM110.864 52.1526C110.708 52.1555 110.555 52.1123 110.424 52.0284C110.293 51.9446 110.19 51.8239 110.129 51.6819C110.067 51.5398 110.049 51.3827 110.078 51.2307C110.107 51.0786 110.18 50.9384 110.29 50.828C110.399 50.7176 110.539 50.642 110.691 50.6108C110.844 50.5795 111.002 50.5941 111.147 50.6526C111.291 50.7111 111.415 50.8109 111.501 50.9393C111.588 51.0677 111.635 51.2189 111.635 51.3736C111.637 51.4754 111.619 51.5767 111.582 51.6714C111.544 51.7661 111.488 51.8524 111.416 51.9251C111.344 51.9977 111.258 52.0553 111.163 52.0944C111.069 52.1335 110.967 52.1533 110.864 52.1526ZM112.987 50.0992H114.145C114.145 50.2441 114.176 50.3874 114.234 50.52C114.293 50.6526 114.379 50.7717 114.486 50.8697C114.594 50.9678 114.721 51.0427 114.859 51.0896C114.997 51.1366 115.143 51.1547 115.289 51.1428C116.04 51.1428 116.466 50.6955 116.466 49.8492V44.5113H117.644V49.854C117.644 51.3736 116.762 52.2584 115.298 52.2584C113.927 52.2584 112.987 51.4121 112.987 50.1137V50.0992ZM119.185 50.0319H120.353C120.454 50.7484 121.157 51.2053 122.17 51.2053C123.183 51.2053 123.808 50.7244 123.808 50.0464C123.808 49.4693 123.367 49.123 122.354 48.8874L121.385 48.6518C120.013 48.3344 119.388 47.69 119.388 46.5647C119.388 45.2182 120.493 44.3237 122.146 44.3237C123.687 44.3237 124.811 45.2182 124.879 46.4925H123.735C123.624 45.7953 123.018 45.3624 122.131 45.3624C121.244 45.3624 120.58 45.8097 120.58 46.4877C120.58 47.0263 120.978 47.3341 121.966 47.5649L122.8 47.7669C124.355 48.1276 124.995 48.7576 124.995 49.8925C124.995 51.3351 123.871 52.244 122.087 52.244C120.406 52.244 119.277 51.3784 119.18 50.0271L119.185 50.0319Z" fill="black"/>
</g>
<defs>
<clipPath id="clip0_119_51">
<rect width="125" height="75" fill="white"/>
</clipPath>
</defs>
</svg>
