<svg width="75" height="75" viewBox="0 0 75 75" fill="none" xmlns="http://www.w3.org/2000/svg">
<path d="M23.0151 62.73C22.9607 62.6339 22.9122 62.5346 22.8698 62.4325C22.5775 61.7555 22.4877 61.0083 22.6112 60.2814H5.2989L31.0271 15.0039L39.4739 29.8526L41.9225 25.5194L34.5594 12.5483C34.2065 11.884 33.6928 11.3187 33.0652 10.9042C32.4375 10.4896 31.716 10.239 30.9665 10.1752C30.2185 10.2092 29.4951 10.4524 28.8785 10.8772C28.262 11.302 27.777 11.8913 27.4788 12.5781L1.41421 58.4048C1.02461 59.0518 0.799975 59.7847 0.76007 60.5389C0.720165 61.2931 0.866213 62.0455 1.18537 62.73C1.5862 63.3622 2.15594 63.8695 2.83012 64.1947C3.5043 64.5198 4.25603 64.6498 5.00026 64.57H26.8312C26.0868 64.651 25.3347 64.5216 24.6602 64.1963C23.9858 63.871 23.4151 63.363 23.0151 62.73Z" fill="#00C492"/>
<path d="M73.206 58.4037L51.787 20.6748C51.4356 20.0034 50.9208 19.4313 50.2901 19.0114C49.6594 18.5914 48.933 18.3371 48.1781 18.2719C47.4311 18.3042 46.7082 18.5459 46.0919 18.9694C45.4756 19.3929 44.9908 19.981 44.6927 20.6667L41.9225 25.5183L44.3872 29.8527L48.201 23.1005L69.3911 60.2803H61.3334C61.4364 60.8948 61.3784 61.5256 61.1652 62.111C61.1203 62.2405 61.064 62.3657 60.997 62.4852L60.9283 62.6225C60.4906 63.2408 59.9073 63.7417 59.2299 64.081C58.5526 64.4203 57.8021 64.5874 57.0448 64.5677H69.6497C70.4071 64.588 71.1578 64.4211 71.8353 64.0818C72.5127 63.7425 73.0959 63.2413 73.5333 62.6225C73.8784 61.959 74.0308 61.212 73.9729 60.4663C73.9151 59.7206 73.6494 59.0061 73.206 58.4037Z" fill="#008776"/>
<path d="M60.9295 62.6236L60.9981 62.4863C61.0647 62.3668 61.1206 62.2415 61.1652 62.1121C61.3784 61.5267 61.4364 60.8959 61.3334 60.2814C61.2144 59.6186 60.9764 58.9828 60.6308 58.4048L44.4032 29.8526L41.9237 25.5194L39.459 29.8526L23.2371 58.4048C22.9222 58.9897 22.7105 59.6245 22.6112 60.2814C22.4806 61.0066 22.5629 61.7542 22.8481 62.4337C22.8904 62.5357 22.9389 62.6351 22.9934 62.7312C23.3944 63.3631 23.9642 63.8702 24.6383 64.1952C25.3125 64.5201 26.0642 64.6499 26.8083 64.57H57.0219C57.7829 64.5925 58.5376 64.4267 59.2191 64.0873C59.9006 63.748 60.4877 63.2456 60.9283 62.6248L60.9295 62.6236ZM41.9225 34.187L56.7553 60.2802H27.0966L41.9225 34.187Z" fill="#2D4A5D"/>
</svg>
