<svg width="74" height="75" viewBox="0 0 74 75" fill="none" xmlns="http://www.w3.org/2000/svg">
<g clip-path="url(#clip0_518_104)">
<path d="M73.0114 44.9063C72.5719 43.5857 71.4207 42.6659 69.9319 42.4452C69.2298 42.3412 68.4259 42.3855 67.4745 42.5801C65.8161 42.9196 64.5859 43.0488 63.688 43.0738C67.0771 37.3968 69.8328 30.923 71.4192 24.829C73.9846 14.9752 72.6137 10.4862 71.0118 8.45567C66.7724 3.08121 60.5873 0.193998 53.1254 0.105655C49.1449 0.0573639 45.6504 0.837115 43.8275 1.39785C42.1303 1.10073 40.3053 0.934833 38.3905 0.904154C34.801 0.847342 31.6295 1.62368 28.9196 3.21926C27.4194 2.7159 25.0115 2.00632 22.2308 1.55352C15.6909 0.488287 10.42 1.31832 6.5645 4.0206C1.89592 7.29244 -0.268296 12.9771 0.131966 20.9166C0.259088 23.4374 1.68033 31.1071 3.91813 38.3808C5.20424 42.5616 6.57567 46.0334 7.99434 48.7008C10.0062 52.4831 12.159 54.7104 14.5758 55.5103C15.9303 55.958 18.3914 56.2716 20.9799 54.1326C21.3081 54.5269 21.7458 54.9186 22.3267 55.2825C23.0646 55.7441 23.9667 56.1214 24.8678 56.3449C28.1148 57.1502 31.1563 56.9488 33.7511 55.82C33.7671 56.2779 33.7794 56.7153 33.7898 57.0931C33.8069 57.7059 33.8241 58.3067 33.8467 58.8685C34.0005 62.6676 34.261 65.6215 35.0329 67.6884C35.0753 67.802 35.1323 67.9753 35.1924 68.1591C35.5775 69.3288 36.2214 71.2872 37.8597 72.8208C39.556 74.4096 41.608 74.8968 43.4874 74.8968C44.4299 74.8968 45.3292 74.774 46.118 74.6064C48.9296 74.0085 52.1228 73.0978 54.4327 69.8345C56.6167 66.7496 57.6783 62.1031 57.8705 54.782C57.8954 54.5749 57.9183 54.3772 57.9403 54.1889L57.9861 53.802L58.5006 53.8469L58.6332 53.8557C61.4969 53.9852 64.9984 53.3827 67.1489 52.3916C68.8482 51.6093 74.2935 48.757 73.0114 44.9063Z" fill="black"/>
<path d="M68.1149 45.6551C59.6001 47.3979 59.0146 44.5376 59.0146 44.5376C68.0047 31.3023 71.7631 14.502 68.5201 10.3902C59.6719 -0.826006 44.3558 4.47858 44.1001 4.61606L44.0179 4.63083C42.3356 4.28428 40.4531 4.07805 38.3369 4.04368C34.4843 3.98118 31.5617 5.04585 29.3439 6.71443C29.3439 6.71443 2.02134 -4.4532 3.29227 20.7596C3.56255 26.1233 11.041 61.3445 19.9607 50.7061C23.2209 46.8158 26.3712 43.5267 26.3712 43.5267C27.9356 44.5578 29.8086 45.0839 31.7721 44.895L31.9247 44.7666C31.8772 45.2495 31.899 45.7219 31.9857 46.2812C29.6878 48.8284 30.3632 49.2755 25.7696 50.2138C21.1214 51.1642 23.8519 52.8561 25.6348 53.2987C27.7961 53.8347 32.7963 54.5943 36.1747 49.9019L36.0402 50.4373C36.9403 51.1529 37.5725 55.0911 37.4666 58.6615C37.3606 62.2316 37.2899 64.6828 37.9991 66.5974C38.7089 68.5119 39.4158 72.8197 45.4546 71.5361C50.5003 70.4632 53.1151 67.683 53.479 63.0454C53.737 59.7486 54.3214 60.2361 54.358 57.2884L54.8267 55.893C55.367 51.4239 54.9126 49.982 58.0211 50.6527L58.7769 50.7186C61.0645 50.8217 64.0594 50.3532 65.817 49.5428C69.6015 47.8004 71.8461 44.8907 68.1144 45.6551H68.1149Z" fill="#336791"/>
<path d="M30.9433 23.1582C30.176 23.0522 29.4811 23.1502 29.1295 23.4144C28.932 23.563 28.8707 23.7351 28.8541 23.8535C28.81 24.1674 29.0316 24.5146 29.1679 24.6935C29.5533 25.2003 30.1162 25.5485 30.6733 25.6252C30.7541 25.6366 30.8345 25.6417 30.9144 25.6417C31.8435 25.6417 32.6884 24.9239 32.7628 24.3941C32.8559 23.7305 31.885 23.288 30.9433 23.1582ZM56.3631 23.1792C56.2898 22.6591 55.357 22.5108 54.4717 22.6329C53.5876 22.7551 52.7304 23.1511 52.802 23.6723C52.8592 24.0777 53.597 24.7696 54.4703 24.7696C54.5441 24.7696 54.6186 24.7648 54.6936 24.7543C55.2765 24.6742 55.7043 24.3069 55.9076 24.0953C56.2168 23.7726 56.396 23.413 56.3631 23.1792Z" fill="white"/>
<path d="M70.9483 45.4571C70.6236 44.4831 69.5786 44.1698 67.8424 44.5254C62.6874 45.581 60.8412 44.8498 60.2351 44.407C64.242 38.3508 67.5383 31.0299 69.3166 24.1996C70.1589 20.9641 70.6242 17.9593 70.6623 15.5101C70.7043 12.8221 70.2428 10.8467 69.2911 9.64C65.454 4.77543 59.8223 2.16603 53.0052 2.09444C48.3186 2.04218 44.3589 3.23211 43.5913 3.56674C41.9748 3.16791 40.2126 2.92305 38.294 2.89181C34.7758 2.83528 31.7346 3.67099 29.2168 5.37451C28.1231 4.97058 25.2967 4.00789 21.84 3.45539C15.8642 2.50094 11.1154 3.22416 7.72665 5.60602C3.68308 8.44835 1.81634 13.5291 2.17795 20.7068C2.29963 23.1216 3.68652 30.5504 5.87508 37.6647C8.75593 47.0286 11.8876 52.3295 15.1825 53.42C15.5681 53.5475 16.0128 53.6367 16.5032 53.6367C17.7051 53.6367 19.1788 53.0993 20.712 51.2705C22.582 49.0447 24.5165 46.873 26.5129 44.7581C27.8082 45.4478 29.2311 45.833 30.6864 45.8716C30.6893 45.9094 30.693 45.9472 30.6965 45.9847C30.446 46.281 30.2006 46.5817 29.9607 46.8866C28.9523 48.1566 28.7424 48.4211 25.4965 49.0841C24.5732 49.2732 22.1209 49.7746 22.0848 51.4801C22.0459 53.3436 24.9837 54.1262 25.3184 54.2091C26.4848 54.4989 27.6086 54.6417 28.6803 54.6417C31.2866 54.6417 33.5802 53.7918 35.4131 52.1474C35.3567 58.7905 35.6359 65.3364 36.4399 67.3308C37.0984 68.9636 38.7069 72.9538 43.7877 72.9535C44.5333 72.9535 45.3538 72.8675 46.2566 72.6755C51.5593 71.5477 53.8621 69.2224 54.7528 64.0959C55.2295 61.3561 56.0475 54.8139 56.4323 51.3046C57.2443 51.556 58.2896 51.671 59.4197 51.6707C61.7766 51.6707 64.4963 51.1739 66.2018 50.3885C68.1178 49.5056 71.5753 47.3393 70.9483 45.4571ZM58.3203 21.7436C58.3028 22.7796 58.1591 23.7201 58.0068 24.7018C57.8427 25.7577 57.6732 26.8494 57.6305 28.1745C57.5885 29.4641 57.7508 30.8049 57.9077 32.1017C58.2249 34.7207 58.5505 37.417 57.2904 40.0776C57.0811 39.7096 56.8947 39.3293 56.7321 38.9388C56.5755 38.5621 56.2354 37.957 55.7644 37.1196C53.9323 33.8597 49.6419 26.2258 51.8382 23.1108C52.4924 22.1836 54.1527 21.2303 58.3203 21.7436ZM53.2686 4.19224C59.3768 4.32604 64.2085 6.59314 67.6294 10.9302C70.2531 14.2569 67.364 29.3937 59 42.4523C58.9159 42.3462 58.8313 42.2405 58.7463 42.135L58.6404 42.0038C60.8017 38.4624 60.3791 34.9585 60.0029 31.852C59.8483 30.5771 59.7023 29.373 59.7395 28.2418C59.7779 27.0431 59.9376 26.0148 60.0922 25.0206C60.2821 23.7954 60.4753 22.5276 60.4221 21.0332C60.4619 20.8764 60.4779 20.6912 60.457 20.4713C60.321 19.0382 58.6719 14.7491 55.3106 10.8671C53.4719 8.74378 50.7906 6.3676 47.1295 4.76491C48.7042 4.44108 50.8576 4.13912 53.2686 4.19224ZM19.0894 49.932C17.4002 51.9471 16.2338 51.5608 15.8501 51.4341C13.3506 50.6069 10.4503 45.3654 7.89328 37.0537C5.68067 29.8618 4.38769 22.6299 4.28519 20.602C3.96224 14.1884 5.52921 9.71868 8.94289 7.31665C14.4985 3.40795 23.6323 5.74749 27.3025 6.93402C27.2499 6.98572 27.1949 7.03401 27.1428 7.08656C21.12 13.1212 21.2628 23.4315 21.2777 24.0618C21.2771 24.305 21.2978 24.6493 21.3258 25.1228C21.4295 26.857 21.6224 30.0845 21.1071 33.7396C20.6284 37.1361 21.6837 40.4605 24.002 42.8605C24.2399 43.1064 24.4899 43.3404 24.7512 43.5616C23.7194 44.6581 21.4767 47.0828 19.0894 49.932ZM25.5254 41.4121C23.657 39.4776 22.8083 36.787 23.1969 34.0293C23.7408 30.1683 23.5401 26.8056 23.4322 24.999C23.417 24.7462 23.4036 24.5246 23.3958 24.3499C24.2757 23.5758 28.353 21.4084 31.2608 22.0694C32.5875 22.3708 33.3961 23.2673 33.7322 24.8092C35.4718 32.7922 33.9624 36.1194 32.7496 38.7933C32.4997 39.3441 32.2634 39.8648 32.0619 40.4034L31.9056 40.8198C31.5099 41.8726 31.1417 42.8514 30.9135 43.7809C28.9271 43.7752 26.9948 42.9333 25.5254 41.4118V41.4121ZM25.8303 52.1781C25.2503 52.0343 24.7286 51.7846 24.4226 51.5776C24.6782 51.4583 25.1332 51.2958 25.9222 51.1344C29.7408 50.3547 30.3306 49.8042 31.6184 48.1819C31.9136 47.8098 32.2483 47.3882 32.7118 46.8746L32.7124 46.8741C33.4027 46.1071 33.7185 46.2372 34.2911 46.473C34.7552 46.6633 35.2073 47.2405 35.3905 47.8757C35.4773 48.1756 35.5746 48.7449 35.256 49.188C32.5658 52.9252 28.6456 52.8771 25.8303 52.1781ZM45.8145 70.6285C41.1431 71.6216 39.4891 69.2568 38.3991 66.5533C37.6956 64.8081 37.3498 56.9378 37.5951 48.2464C37.5983 48.1307 37.5817 48.0191 37.5496 47.914C37.5209 47.7065 37.4773 47.5012 37.419 47.2999C37.0543 46.0352 36.1653 44.9774 35.0988 44.5388C34.675 44.3646 33.8974 44.0451 32.9629 44.2823C33.1622 43.4676 33.5078 42.5475 33.8825 41.5513L34.0397 41.1323C34.2167 40.6599 34.4388 40.1705 34.6736 39.6523C35.9428 36.8549 37.681 33.0232 35.7945 24.3669C35.0879 21.1246 32.7281 19.5413 29.151 19.9091C27.0065 20.1293 25.0444 20.9877 24.0658 21.48C23.8554 21.5857 23.663 21.6879 23.4832 21.7874C23.7563 18.5206 24.7882 12.4156 28.6482 8.55289C31.0787 6.12131 34.3154 4.9203 38.2591 4.98506C46.0295 5.11119 51.0125 9.06761 53.8246 12.3647C56.248 15.2056 57.5601 18.0676 58.0838 19.6112C54.1456 19.2138 51.4671 19.985 50.1095 21.9109C47.1556 26.1003 51.7254 34.2313 53.9217 38.1391C54.3245 38.8553 54.6721 39.4742 54.7815 39.7373C55.4967 41.457 56.4226 42.6052 57.0986 43.4431C57.3059 43.6999 57.5069 43.9491 57.6598 44.1667C56.467 44.5078 54.3245 45.2961 54.5198 49.2363C54.3623 51.2134 53.2426 60.4699 52.6737 63.7403C51.9227 68.0609 50.3202 69.6701 45.8145 70.6288V70.6285ZM65.3134 48.4898C64.0937 49.0514 62.0526 49.4727 60.1137 49.5633C57.9721 49.6627 56.8818 49.3252 56.6253 49.1176C56.5051 46.6621 57.4261 46.4056 58.401 46.1341C58.5542 46.0915 58.7036 46.0497 58.8479 45.9997C58.9376 46.0721 59.0358 46.144 59.1434 46.2145C60.8647 47.3416 63.9348 47.4632 68.2693 46.5755L68.3168 46.5661C67.7322 47.1084 66.7318 47.8362 65.3134 48.4898Z" fill="white"/>
</g>
<defs>
<clipPath id="clip0_518_104">
<rect width="73.2955" height="75" fill="white"/>
</clipPath>
</defs>
</svg>
