<svg width="106" height="75" viewBox="0 0 106 75" fill="none" xmlns="http://www.w3.org/2000/svg">
<path d="M83.6391 37.3552C83.6391 33.2606 78.5302 29.3802 70.6972 26.9738C72.5048 18.9611 71.7015 12.5861 68.1616 10.5452C67.3456 10.0664 66.3916 9.83962 65.3498 9.83962V12.6491C65.9272 12.6491 66.3916 12.7625 66.7808 12.9767C68.488 13.9594 69.2286 17.7012 68.6511 22.5139C68.5131 23.6982 68.2871 24.9455 68.0109 26.2179C65.5506 25.6132 62.8643 25.147 60.0399 24.8447C58.3453 22.5139 56.5879 20.3973 54.818 18.5453C58.9102 14.7279 62.7513 12.6365 65.3623 12.6365V9.82703C61.9103 9.82703 57.3913 12.2964 52.8221 16.5799C48.2529 12.3216 43.7339 9.87742 40.2819 9.87742V12.6869C42.8803 12.6869 46.734 14.7657 50.8262 18.5579C49.0688 20.4099 47.3114 22.5139 45.6419 24.8447C42.805 25.147 40.1187 25.6132 37.6583 26.2305C37.3696 24.9707 37.1562 23.7486 37.0056 22.5769C36.4156 17.7642 37.1437 14.0224 38.8383 13.0271C39.2149 12.8003 39.7044 12.6995 40.2819 12.6995V9.89002C39.2274 9.89002 38.2734 10.1168 37.4449 10.5955C33.9176 12.6365 33.1268 18.9989 34.9469 26.9864C27.1391 29.4054 22.0552 33.2732 22.0552 37.3552C22.0552 41.4497 27.1642 45.3301 34.9971 47.7365C33.1895 55.7493 33.9929 62.1242 37.5328 64.1652C38.3487 64.6439 39.3028 64.8707 40.3572 64.8707C43.8092 64.8707 48.3282 62.4014 52.8974 58.1178C57.4666 62.3762 61.9856 64.8203 65.4376 64.8203C66.4921 64.8203 67.4461 64.5935 68.2746 64.1148C71.8019 62.0738 72.5927 55.7115 70.7726 47.7239C78.5553 45.3175 83.6391 41.4371 83.6391 37.3552ZM67.2954 28.9518C66.831 30.5771 66.2536 32.2527 65.6008 33.9283C65.0861 32.9204 64.5464 31.9125 63.9564 30.9046C63.379 29.8967 62.7639 28.914 62.1488 27.9565C63.9313 28.2211 65.651 28.5487 67.2954 28.9518ZM61.5463 42.3694C60.5672 44.0703 59.5629 45.6829 58.521 47.1821C56.6507 47.3459 54.7552 47.4341 52.8472 47.4341C50.9517 47.4341 49.0563 47.3459 47.1984 47.1947C46.1566 45.6955 45.1398 44.0955 44.1607 42.4072C43.2067 40.7568 42.3405 39.0812 41.5497 37.393C42.328 35.7047 43.2067 34.0165 44.1481 32.3661C45.1272 30.6653 46.1315 29.0526 47.1733 27.5534C49.0437 27.3896 50.9392 27.3014 52.8472 27.3014C54.7427 27.3014 56.6381 27.3896 58.4959 27.5408C59.5378 29.04 60.5546 30.6401 61.5337 32.3283C62.4877 33.9787 63.3539 35.6543 64.1447 37.3426C63.3539 39.0308 62.4877 40.719 61.5463 42.3694ZM65.6008 40.7316C66.2787 42.4198 66.8561 44.1081 67.3331 45.7459C65.6887 46.1491 63.9564 46.4892 62.1614 46.7538C62.7764 45.7837 63.3915 44.7884 63.969 43.7679C64.5464 42.76 65.0861 41.7395 65.6008 40.7316ZM52.8723 54.1744C51.7049 52.9649 50.5375 51.6169 49.3826 50.1428C50.5124 50.1932 51.6672 50.231 52.8346 50.231C54.0146 50.231 55.182 50.2058 56.3243 50.1428C55.1946 51.6169 54.0272 52.9649 52.8723 54.1744ZM43.533 46.7538C41.7505 46.4892 40.0308 46.1617 38.3864 45.7585C38.8508 44.1333 39.4283 42.4576 40.081 40.782C40.5957 41.7899 41.1355 42.7978 41.7254 43.8057C42.3154 44.8136 42.9179 45.7963 43.533 46.7538ZM52.8095 20.5359C53.9769 21.7454 55.1444 23.0934 56.2992 24.5675C55.1695 24.5171 54.0146 24.4793 52.8472 24.4793C51.6672 24.4793 50.4998 24.5045 49.3575 24.5675C50.4873 23.0934 51.6547 21.7454 52.8095 20.5359ZM43.5205 27.9565C42.9054 28.9266 42.2903 29.9219 41.7129 30.9424C41.1355 31.9503 40.5957 32.9582 40.081 33.9661C39.4032 32.2779 38.8257 30.5897 38.3487 28.9518C39.9932 28.5613 41.7254 28.2211 43.5205 27.9565ZM32.1602 43.7301C27.7165 41.8277 24.842 39.3332 24.842 37.3552C24.842 35.3772 27.7165 32.87 32.1602 30.9802C33.2398 30.5141 34.4197 30.0983 35.6373 29.7078C36.3528 32.1771 37.2943 34.7472 38.4617 37.3804C37.3069 40.0009 36.378 42.5584 35.675 45.0152C34.4323 44.6246 33.2523 44.1963 32.1602 43.7301ZM38.9136 61.7336C37.2064 60.7509 36.4658 57.0091 37.0433 52.1964C37.1813 51.0121 37.4073 49.7649 37.6834 48.4924C40.1438 49.0971 42.8301 49.5633 45.6545 49.8657C47.3491 52.1964 49.1065 54.313 50.8764 56.165C46.7842 59.9824 42.9431 62.0738 40.3321 62.0738C39.7672 62.0612 39.2902 61.9478 38.9136 61.7336ZM68.6888 52.1334C69.2788 56.9461 68.5507 60.6879 66.8561 61.6832C66.4795 61.91 65.9899 62.0108 65.4125 62.0108C62.8141 62.0108 58.9604 59.932 54.8682 56.1398C56.6256 54.2878 58.383 52.1838 60.0525 49.8531C62.8894 49.5507 65.5757 49.0845 68.0361 48.4672C68.3248 49.7397 68.5507 50.9618 68.6888 52.1334ZM73.5216 43.7301C72.4421 44.1963 71.2621 44.612 70.0445 45.0026C69.329 42.5332 68.3875 39.9631 67.2201 37.33C68.375 34.7094 69.3039 32.1519 70.0068 29.6952C71.2496 30.0857 72.4295 30.5141 73.5342 30.9802C77.9778 32.8826 80.8524 35.3772 80.8524 37.3552C80.8399 39.3332 77.9653 41.8403 73.5216 43.7301Z" fill="#61DAFB"/>
<path d="M52.8346 43.1127C56.0029 43.1127 58.5713 40.535 58.5713 37.3551C58.5713 34.1753 56.0029 31.5975 52.8346 31.5975C49.6664 31.5975 47.098 34.1753 47.098 37.3551C47.098 40.535 49.6664 43.1127 52.8346 43.1127Z" fill="#61DAFB"/>
</svg>
