<svg width="96" height="58" viewBox="0 0 96 58" fill="none" xmlns="http://www.w3.org/2000/svg">
<g clip-path="url(#clip0_518_109)">
<path d="M48 0.0771484C35.2001 0.0771484 27.1999 6.50458 24 19.3591C28.8 12.9316 34.3999 10.5214 40.8 12.1283C44.4514 13.045 47.0614 15.7057 49.9504 18.6503C54.6566 23.4478 60.1031 29 72 29C84.7999 29 92.8001 22.5726 96 9.7181C91.2 16.1455 85.6001 18.5558 79.2 16.9488C75.5486 16.0322 72.9386 13.3715 70.0496 10.4269C65.3434 5.62936 59.8969 0.0771484 48 0.0771484ZM24 29C11.2001 29 3.19987 35.4274 0 48.2819C4.8 41.8545 10.3999 39.4443 16.8 41.0512C20.4514 41.9679 23.0614 44.6285 25.9504 47.5732C30.6566 52.3707 36.1031 57.9229 48 57.9229C60.7999 57.9229 68.8001 51.4955 72 38.641C67.2 45.0684 61.6001 47.4786 55.2 45.8717C51.5486 44.955 48.9386 42.2944 46.0496 39.3497C41.3434 34.5522 35.8969 29 24 29Z" fill="url(#paint0_linear_518_109)"/>
</g>
<defs>
<linearGradient id="paint0_linear_518_109" x1="-682.721" y1="2843.31" x2="-396.043" y2="6046.54" gradientUnits="userSpaceOnUse">
<stop stop-color="#2298BD"/>
<stop offset="1" stop-color="#0ED7B5"/>
</linearGradient>
<clipPath id="clip0_518_109">
<rect width="96" height="58" fill="white"/>
</clipPath>
</defs>
</svg>
