<svg width="75" height="75" viewBox="0 0 75 75" fill="none" xmlns="http://www.w3.org/2000/svg">
<g clip-path="url(#clip0_119_73)">
<path d="M0 37.5V0H75V75H0" fill="#007ACC"/>
<path d="M16.4437 37.6313V40.6875H26.1937V68.4375H33.1125V40.6875H42.8625V37.6875C42.8625 36 42.8625 34.6313 42.7875 34.5938C42.7875 34.5375 36.8437 34.5188 29.625 34.5188L16.5 34.575V37.65L16.4437 37.6313ZM60.2625 34.5C62.175 34.95 63.6375 35.8125 64.95 37.1813C65.6437 37.9313 66.675 39.2438 66.75 39.5813C66.75 39.6938 63.5062 41.8875 61.5375 43.1063C61.4625 43.1625 61.1625 42.8438 60.8625 42.3563C59.8875 40.9688 58.8937 40.3688 57.3375 40.2563C55.0875 40.1063 53.5875 41.2875 53.5875 43.2563C53.5875 43.8563 53.7 44.1938 53.925 44.6813C54.4312 45.7125 55.3687 46.3313 58.275 47.6063C63.6375 49.9125 65.9625 51.4313 67.3687 53.6063C68.9625 56.0438 69.3187 59.8688 68.25 62.7375C67.05 65.8688 64.125 67.9875 59.9437 68.6813C58.6312 68.9063 55.6312 68.8688 54.225 68.625C51.225 68.0625 48.3562 66.5625 46.5937 64.6313C45.9 63.8813 44.5687 61.875 44.6437 61.7438L45.3562 61.2938L48.1687 59.6625L50.2875 58.425L50.775 59.0813C51.3937 60.0563 52.7812 61.3688 53.5875 61.8188C56.025 63.075 59.2875 62.9063 60.9 61.4438C61.5937 60.8063 61.8937 60.1313 61.8937 59.1938C61.8937 58.3313 61.7625 57.9375 61.3312 57.2813C60.7312 56.4563 59.5312 55.7813 56.1562 54.2813C52.275 52.6313 50.625 51.5813 49.0875 49.9688C48.2062 48.9938 47.4 47.475 47.025 46.2188C46.7437 45.1313 46.65 42.4688 46.9125 41.4C47.7187 37.65 50.55 35.025 54.6 34.275C55.9125 34.0125 59.0062 34.125 60.3 34.4625L60.2625 34.5Z" fill="white"/>
</g>
<defs>
<clipPath id="clip0_119_73">
<rect width="75" height="75" fill="white"/>
</clipPath>
</defs>
</svg>
