<svg width="253" height="75" viewBox="0 0 253 75" fill="none" xmlns="http://www.w3.org/2000/svg">
<path fill-rule="evenodd" clip-rule="evenodd" d="M0.588785 51.4796C-0.185248 50.2761 -0.196941 48.7431 0.558641 47.528L29.0077 1.78292C30.5901 -0.761403 34.4109 -0.538934 35.6784 2.1713L61.668 57.7457C62.6322 59.8077 61.5223 62.2338 59.3158 62.8864L18.8871 74.8422C17.2604 75.3231 15.5078 74.6786 14.5985 73.2647L0.588785 51.4796ZM32.2901 15.1584C32.5643 13.8127 34.4348 13.6186 34.9872 14.8786L52.9145 55.7703C53.2518 56.5402 52.8319 57.4281 52.0166 57.6679L24.0835 65.8875C23.0567 66.1896 22.0732 65.3053 22.2842 64.2696L32.2901 15.1584ZM136.202 57.3761H144.144V28.6795H136.202V57.3761ZM135.864 21.2618C135.864 18.7132 137.306 17.4379 140.187 17.4379C143.068 17.4379 144.51 18.7132 144.51 21.2618C144.51 22.4772 144.149 23.4225 143.429 24.0987C142.709 24.7748 141.628 25.112 140.187 25.112C137.306 25.112 135.864 23.8286 135.864 21.2618ZM244.828 44.0811L241.755 44.1835C239.446 44.2525 237.728 44.6639 236.599 45.4161C235.47 46.1694 234.907 47.3151 234.907 48.8558C234.907 51.0626 236.191 52.1667 238.76 52.1667C240.6 52.1667 242.072 51.6454 243.173 50.6005C244.276 49.5573 244.828 48.1714 244.828 46.4421V44.0811ZM247.171 57.3772L245.635 53.4754H245.426C244.089 55.1357 242.714 56.2869 241.299 56.9287C239.885 57.5702 238.04 57.8902 235.766 57.8902C232.97 57.8902 230.771 57.1034 229.165 55.5292C227.56 53.9558 226.757 51.7135 226.757 48.804C226.757 45.7588 227.837 43.513 229.998 42.0664C232.16 40.6206 235.419 39.8205 239.776 39.6663L244.828 39.5124V38.2543C244.828 35.3459 243.317 33.891 240.297 33.891C237.97 33.891 235.236 34.5835 232.094 35.9703L229.465 30.6825C232.815 28.9552 236.531 28.0898 240.609 28.0898C244.515 28.0898 247.51 28.9289 249.593 30.6056C251.676 32.2825 252.717 34.8329 252.717 38.2543V57.3772H247.171ZM203.568 57.3772H195.625V40.6159C195.625 38.5459 195.273 36.9935 194.572 35.9575C193.867 34.9223 192.761 34.4041 191.251 34.4041C189.22 34.4041 187.745 35.1408 186.824 36.6117C185.904 38.0838 185.444 40.5055 185.444 43.8762V57.3772H177.502V28.6803H183.569L184.637 32.3512H185.08C185.861 31.0342 186.99 30.0029 188.465 29.2587C189.94 28.5136 191.633 28.1413 193.543 28.1413C197.9 28.1413 200.85 29.5449 202.396 32.3512H203.098C203.88 31.0162 205.03 29.981 206.549 29.2451C208.068 28.5092 209.782 28.1413 211.692 28.1413C214.99 28.1413 217.486 28.976 219.178 30.6443C220.87 32.313 221.716 34.9869 221.716 38.6646V57.3772H213.748V40.6159C213.748 38.5459 213.396 36.9935 212.695 35.9575C211.991 34.9223 210.884 34.4041 209.374 34.4041C207.43 34.4041 205.976 35.0893 205.012 36.4578C204.049 37.8271 203.568 39.9996 203.568 42.977V57.3772ZM168.993 55.5804C171.068 54.0405 172.105 51.7991 172.105 48.8552C172.105 47.4361 171.854 46.2115 171.35 45.1846C170.847 44.1578 170.065 43.2513 169.007 42.4637C167.949 41.6771 166.282 40.8305 164.007 39.9232C161.455 38.9135 159.802 38.1513 159.047 37.6383C158.293 37.1253 157.914 36.5182 157.914 35.8158C157.914 34.5669 159.086 33.9423 161.43 33.9423C162.748 33.9423 164.042 34.1399 165.309 34.5322C166.576 34.9265 167.939 35.4304 169.398 36.0469L171.793 30.4004C168.477 28.8949 165.066 28.1418 161.559 28.1418C157.879 28.1418 155.037 28.8387 153.032 30.2335C151.026 31.6283 150.024 33.6006 150.024 36.1494C150.024 37.6383 150.263 38.8928 150.741 39.9105C151.218 40.9285 151.982 41.8311 153.032 42.6179C154.081 43.4055 155.727 44.261 157.966 45.1846C159.528 45.8353 160.779 46.4045 161.716 46.892C162.654 47.3798 163.313 47.8167 163.695 48.201C164.077 48.5861 164.268 49.0864 164.268 49.7027C164.268 51.345 162.826 52.1662 159.945 52.1662C158.539 52.1662 156.912 51.935 155.063 51.4737C153.214 51.0114 151.552 50.4386 150.076 49.7534V56.2221C151.378 56.7695 152.776 57.1845 154.269 57.4674C155.762 57.7493 157.566 57.8905 159.685 57.8905C163.816 57.8905 166.919 57.1203 168.993 55.5804ZM131.989 28.3722C131.278 28.2182 130.384 28.1413 129.307 28.1413C127.502 28.1413 125.831 28.6332 124.295 29.6175C122.758 30.602 121.539 31.8979 120.636 33.5057H120.246L119.074 28.6803H113.059V57.3772H121.001V42.7721C121.001 40.462 121.708 38.6646 123.122 37.3814C124.538 36.0979 126.512 35.4561 129.047 35.4561C129.967 35.4561 130.748 35.5422 131.391 35.7128L131.989 28.3722ZM89.6832 37.5096H92.3393C94.8218 37.5096 96.6783 37.0265 97.9113 36.0594C99.1442 35.0932 99.7602 33.6848 99.7602 31.8368C99.7602 29.9724 99.2434 28.5948 98.2109 27.7047C97.1774 26.8146 95.5594 26.3695 93.3543 26.3695H89.6832V37.5096ZM107.91 31.5549C107.91 35.5937 106.63 38.6824 104.069 40.8205C101.509 42.9604 97.868 44.029 93.1468 44.029H89.6832V57.3766H81.6113V19.8504H93.7711C98.3893 19.8504 101.9 20.8301 104.304 22.7896C106.709 24.7491 107.91 27.6714 107.91 31.5549Z" fill="#101110"/>
</svg>
